<svg xmlns="http://www.w3.org/2000/svg" width="17" height="17" viewBox="0 0 22 22">
  <defs>
    <style>
      .cls-1 {
        fill: red;
        fill-rule: evenodd;
      }
    </style>
  </defs>
  <path id="_" data-name="" class="cls-1" d="M1785.24,2232.09l0.21-1.05a7.9,7.9,0,0,1-4.51-2.61l-0.8.7a8.4,8.4,0,0,1-.9-1.21l-0.71.42a9.943,9.943,0,0,0,3.47,3.38,9.772,9.772,0,0,0,4.73,1.34v-0.81a9.245,9.245,0,0,1-1.49-.16h0Zm-6.29-8.95a7.751,7.751,0,0,1,.43-2.6l-1.01-.34a9.158,9.158,0,0,1,.6-1.38l-0.7-.4a9.9,9.9,0,0,0,0,9.45l0.7-.41a11.526,11.526,0,0,1-.6-1.37l1.02-.34a7.777,7.777,0,0,1-.44-2.61h0Zm14.91,5.99-0.8-.7a7.9,7.9,0,0,1-4.51,2.61l0.21,1.05a9.245,9.245,0,0,1-1.49.16v0.81a9.772,9.772,0,0,0,4.73-1.34,9.943,9.943,0,0,0,3.47-3.38l-0.71-.42a8.4,8.4,0,0,1-.9,1.21h0Zm-2.17-10.09-2.27,1.99a3.108,3.108,0,0,0-1.81-1.05l0.59-2.95a6.06,6.06,0,0,0-2.4,0l0.59,2.95a3.108,3.108,0,0,0-1.81,1.05l-2.27-1.99a6.438,6.438,0,0,0-1.22,2.08l2.87,0.98a3.118,3.118,0,0,0-.18,1.04,3.22,3.22,0,0,0,.18,1.05l-2.85.98a6.027,6.027,0,0,0,1.2,2.07l2.27-1.99a3.121,3.121,0,0,0,1.81,1.05l-0.59,2.96a6.06,6.06,0,0,0,2.4,0l-0.59-2.96a3.121,3.121,0,0,0,1.81-1.05l2.27,1.99a6.027,6.027,0,0,0,1.2-2.07l-2.85-.98a3.22,3.22,0,0,0,.18-1.05,3.118,3.118,0,0,0-.18-1.04l2.86-.98a6.411,6.411,0,0,0-1.21-2.08h0Zm-9.69-4.47a9.826,9.826,0,0,0-3.46,3.38l0.7,0.4a9.871,9.871,0,0,1,.9-1.2l0.8,0.69a7.765,7.765,0,0,1,4.51-2.59l-0.21-1.06a9.717,9.717,0,0,1,1.49-.16v-0.81A9.721,9.721,0,0,0,1782,2214.57Zm13.73,3.85-0.7.4a10.3,10.3,0,0,1,.6,1.38l-1.01.34a8.018,8.018,0,0,1-.01,5.21l1.02,0.34a11.526,11.526,0,0,1-.6,1.37l0.7,0.41a9.9,9.9,0,0,0,0-9.45h0Zm-3.73-3.85a9.721,9.721,0,0,0-4.73-1.35v0.81a9.717,9.717,0,0,1,1.49.16l-0.21,1.06a7.765,7.765,0,0,1,4.51,2.59l0.8-.69a9.871,9.871,0,0,1,.9,1.2l0.7-.4A9.826,9.826,0,0,0,1792,2214.57Zm2.4,15.98a10.379,10.379,0,0,1-3.34,2.22,10.345,10.345,0,0,1-8.12,0,10.468,10.468,0,0,1-6.4-9.63,10.608,10.608,0,0,1,3.06-7.4,10.4,10.4,0,0,1,3.34-2.23,10.345,10.345,0,0,1,8.12,0,10.274,10.274,0,0,1,5.57,5.57,10.369,10.369,0,0,1,0,8.13A10.46,10.46,0,0,1,1794.4,2230.55Zm0.38-15.19a11.2,11.2,0,0,0-3.51-2.35,10.914,10.914,0,0,0-8.54,0,11.2,11.2,0,0,0-3.51,2.35,10.874,10.874,0,0,0-2.35,3.51,10.938,10.938,0,0,0,0,8.55,10.815,10.815,0,0,0,5.86,5.85,10.914,10.914,0,0,0,8.54,0,10.815,10.815,0,0,0,5.86-5.85A11.043,11.043,0,0,0,1794.78,2215.36Z" transform="translate(-1776 -2212.16)"/>
</svg>
